<svg width="16" height="16" viewBox="0 0 16 16" fill="none" xmlns="http://www.w3.org/2000/svg">
<path fill-rule="evenodd" clip-rule="evenodd" d="M3.2 0.777039H12.8C14.5673 0.777039 16 2.09285 16 3.71599V9.5939C16 11.217 14.5673 12.5328 12.8 12.5328H4.8C4.15884 12.5216 3.53946 12.7465 3.08 13.1574L0.68 15.3616C0.606662 15.4315 0.505695 15.4712 0.4 15.4718C0.179086 15.4718 0 15.3073 0 15.1044V3.71599C0 2.09285 1.43269 0.777039 3.2 0.777039ZM14.4 3.716C14.4 2.90443 13.6837 2.24652 12.8 2.24652H3.2C2.31635 2.24652 1.60001 2.90443 1.60001 3.716V12.4447L1.96801 12.1361C2.71961 11.4476 3.73841 11.0617 4.8 11.0634H12.8C13.6837 11.0634 14.4 10.4055 14.4 9.59391V3.716Z" fill="#7B7B7B"/>
</svg>
