<svg width="20" height="21" viewBox="0 0 20 21" fill="none" xmlns="http://www.w3.org/2000/svg">
<path d="M15.5541 20.3712C13.7167 20.3696 11.9081 19.9173 10.2879 19.0542L9.78795 18.7775C6.33356 16.9273 3.50154 14.1061 1.64429 10.665L1.36654 10.1669C0.477536 8.54373 0.00791893 6.72569 6.98594e-07 4.87664V4.13511C-0.000468563 3.54516 0.23549 2.97943 0.655493 2.56352L2.53309 0.693099C2.71543 0.510039 2.97283 0.421806 3.22964 0.454326C3.48646 0.486847 3.71351 0.636428 3.84407 0.859113L6.34383 5.13119C6.59662 5.56602 6.52363 6.11593 6.16607 6.47036L4.06628 8.56213C3.8919 8.73394 3.85126 8.99933 3.96628 9.21512L4.35514 9.94558C5.75171 12.5226 7.8762 14.6351 10.4657 16.0217L11.1989 16.4201C11.4155 16.5347 11.6819 16.4942 11.8544 16.3205L13.9542 14.2287C14.31 13.8725 14.862 13.7998 15.2985 14.0516L19.587 16.5418C19.8105 16.6719 19.9607 16.8981 19.9933 17.1539C20.026 17.4098 19.9374 17.6662 19.7537 17.8478L17.8761 19.7182C17.4585 20.1366 16.8906 20.3717 16.2984 20.3712H15.5541Z" fill="#7B7B7B"/>
</svg>
