<svg width="16" height="16" viewBox="0 0 16 16" xmlns="http://www.w3.org/2000/svg">
<path fill-rule="evenodd" clip-rule="evenodd" d="M8 0C3.58172 0 0 3.58172 0 8C0 12.4183 3.58172 16 8 16C12.4183 16 16 12.4183 16 8C16 5.87827 15.1571 3.84344 13.6569 2.34315C12.1566 0.842855 10.1217 0 8 0ZM14.3999 8.00008C13.4837 7.725 12.5324 7.58486 11.5759 7.58407C11.0068 7.59167 10.4394 7.64787 9.87985 7.75208C9.67985 7.26407 9.47185 6.79206 9.24785 6.32005C10.5635 5.6627 11.7632 4.79531 12.7999 3.75201C13.8382 4.92262 14.408 6.43532 14.3999 8.00008ZM8.69597 5.26397C9.88297 4.66854 10.964 3.88209 11.896 2.93605C10.78 2.07362 9.41037 1.60397 7.99997 1.6001C7.48212 1.60219 6.9664 1.66665 6.46397 1.79209C7.29839 2.8887 8.04472 4.04961 8.69597 5.26397ZM5.2961 2.20801C6.16315 3.32641 6.93644 4.51443 7.60811 5.76C6.20294 6.30871 4.70859 6.59348 3.20009 6.6C2.7269 6.59483 2.25428 6.56546 1.78409 6.512C2.23866 4.61758 3.53137 3.03336 5.2961 2.20801ZM1.59975 7.69605V8.00005C1.60346 9.57859 2.19039 11.1001 3.24776 12.2721C4.49256 10.2477 6.43214 8.74611 8.70376 8.04805C8.53576 7.63205 8.34376 7.23204 8.15176 6.83203C6.57767 7.46669 4.89696 7.79524 3.19975 7.80005C2.66479 7.7982 2.13045 7.76346 1.59975 7.69605ZM4.144 13.0959C5.24135 11.197 7.02514 9.79123 9.12798 9.16809C9.69049 10.7224 10.09 12.331 10.32 13.9679C8.25208 14.7814 5.90926 14.4536 4.144 13.1039V13.0959ZM10.3117 8.89605C10.8223 10.3555 11.2024 11.8574 11.4477 13.3841C12.9166 12.446 13.9394 10.9494 14.2797 9.24005C13.4078 8.94957 12.4948 8.80101 11.5757 8.80005C11.1527 8.80388 10.7304 8.83595 10.3117 8.89605Z" fill="black"/>
</svg>
