<svg width="9" height="16" viewBox="0 0 9 16" fill="none" xmlns="http://www.w3.org/2000/svg">
<path d="M8.55 2.66667H5.85C5.35294 2.66667 4.95 3.06464 4.95 3.55556V6.22222H8.55C8.65236 6.21998 8.74944 6.26701 8.8103 6.34834C8.87116 6.42966 8.8882 6.53512 8.856 6.63111L8.19 8.58667C8.12863 8.76615 7.95881 8.88748 7.767 8.88889H4.95V15.5556C4.95 15.801 4.74853 16 4.5 16H2.25C2.00147 16 1.8 15.801 1.8 15.5556V8.88889H0.45C0.201472 8.88889 0 8.6899 0 8.44444V6.66667C0 6.42121 0.201472 6.22222 0.45 6.22222H1.8V3.55556C1.8 1.59188 3.41177 0 5.4 0H8.55C8.79853 0 9 0.198985 9 0.444444V2.22222C9 2.46768 8.79853 2.66667 8.55 2.66667Z" fill="black"/>
</svg>
