<svg width="16" height="16" viewBox="0 0 16 16" fill="none" xmlns="http://www.w3.org/2000/svg">
<path fill-rule="evenodd" clip-rule="evenodd" d="M0 1.88235C0 0.842758 0.818652 0 1.82851 0C2.31346 0 2.77855 0.198319 3.12146 0.551328C3.46437 0.904338 3.65702 1.38312 3.65702 1.88235C3.65702 2.92195 2.83837 3.76471 1.82851 3.76471C0.818652 3.76471 0 2.92195 0 1.88235ZM15.9995 9.79762C16.031 7.75988 14.6806 5.97421 12.7539 5.50586C11.4627 5.21965 10.1168 5.59495 9.14255 6.51291V6.11762C9.14255 5.85772 8.93789 5.64703 8.68542 5.64703H6.39978C6.14732 5.64703 5.94266 5.85772 5.94266 6.11762V15.5294C5.94266 15.7893 6.14732 16 6.39978 16H8.68542C8.93789 16 9.14255 15.7893 9.14255 15.5294V10.2211C9.11997 9.27594 9.7599 8.45049 10.6602 8.2635C11.1963 8.16824 11.7457 8.32365 12.1593 8.68751C12.5728 9.05137 12.8075 9.58589 12.7996 10.1459V15.5294C12.7996 15.7893 13.0042 16 13.2567 16H15.5423C15.7948 16 15.9995 15.7893 15.9995 15.5294V9.79762ZM3.65702 6.11762V15.5294C3.65702 15.7893 3.45236 16 3.19989 16H0.914255C0.66179 16 0.457127 15.7893 0.457127 15.5294V6.11762C0.457127 5.85772 0.66179 5.64703 0.914255 5.64703H3.19989C3.45236 5.64703 3.65702 5.85772 3.65702 6.11762Z" fill="black"/>
</svg>
