<svg width="19" height="16" viewBox="0 0 19 16" fill="none" xmlns="http://www.w3.org/2000/svg">
<path d="M18.9722 2.31885C18.482 2.96671 17.8894 3.53184 17.2174 3.99243C17.2174 4.16166 17.2174 4.3309 17.2174 4.50954C17.2227 7.58287 15.9836 10.5298 13.7778 12.6897C11.5719 14.8496 8.58389 16.0417 5.48351 15.9989C3.69111 16.0048 1.92167 15.5993 0.313786 14.8142C0.227089 14.7767 0.171171 14.6917 0.1715 14.598V14.4946C0.1715 14.3595 0.28192 14.2501 0.418129 14.2501C2.18001 14.1926 3.87904 13.5874 5.27482 12.5201C3.68007 12.4883 2.24521 11.5523 1.58487 10.1132C1.55152 10.0346 1.56191 9.94442 1.61228 9.87529C1.66265 9.80615 1.74573 9.76804 1.8315 9.77471C2.31618 9.82297 2.8057 9.77828 3.27333 9.64308C1.51286 9.28103 0.19007 7.83309 0.000757292 6.06088C-0.00597115 5.97587 0.0324846 5.89352 0.102232 5.84359C0.171979 5.79366 0.262936 5.78337 0.342243 5.81643C0.814677 6.02295 1.32467 6.13173 1.84099 6.1361C0.298401 5.13303 -0.367895 3.22515 0.218929 1.49147C0.279503 1.32301 0.425032 1.19856 0.602036 1.16385C0.779041 1.12915 0.961411 1.18931 1.08213 1.32223C3.16376 3.51713 6.02394 4.82506 9.05963 4.97024C8.98187 4.66284 8.94362 4.34694 8.9458 4.03003C8.97419 2.36834 10.012 0.888063 11.5733 0.282222C13.1347 -0.32362 14.9106 0.0648726 16.0696 1.26582C16.8596 1.11671 17.6234 0.853801 18.3367 0.485449C18.3889 0.453133 18.4552 0.453133 18.5074 0.485449C18.54 0.537233 18.54 0.602901 18.5074 0.654686C18.1619 1.43845 17.5783 2.09581 16.8379 2.5351C17.4863 2.46061 18.1232 2.30909 18.7351 2.0838C18.7866 2.04906 18.8543 2.04906 18.9058 2.0838C18.949 2.10336 18.9812 2.14077 18.994 2.18606C19.0068 2.23135 18.9988 2.27993 18.9722 2.31885Z" fill="black"/>
</svg>
